<svg preserveAspectRatio="xMidYMid meet" data-bbox="35.999 36 128 128" viewBox="35.999 36 128 128" height="200" width="200" xmlns="http://www.w3.org/2000/svg" data-type="color" role="presentation" aria-hidden="true" aria-label="">
    <g>
        <path d="M40.001 164a3.999 3.999 0 0 1-3.796-5.265l12.151-36.451a60.146 60.146 0 0 1-5.689-25.627c.009-23.112 12.862-43.897 33.545-54.234A60.127 60.127 0 0 1 103.19 36h3.476c.073 0 .147.002.221.006 30.853 1.703 55.403 26.253 57.106 57.107.004.073.006.146.006.22v3.323a60.142 60.142 0 0 1-6.43 27.146c-10.329 20.667-31.114 33.521-54.235 33.53h-.153a60.182 60.182 0 0 1-25.465-5.689l-36.452 12.15c-.413.14-.84.207-1.263.207zM103.2 44a52.134 52.134 0 0 0-23.397 5.57c-17.97 8.982-29.129 27.026-29.136 47.098a52.112 52.112 0 0 0 5.57 23.528c.48.952.562 2.057.225 3.069l-10.138 30.41 30.411-10.137a3.997 3.997 0 0 1 3.067.225 52.13 52.13 0 0 0 23.387 5.57h.133c20.082-.008 38.126-11.167 47.1-29.122A52.126 52.126 0 0 0 156 96.676v-3.231c-1.527-26.69-22.757-47.92-49.445-49.446h-3.222L103.2 44z" fill="#000001" data-color="1"/>
    </g>
</svg>