<svg preserveAspectRatio="xMidYMid meet" data-bbox="36 29.5 128 141" viewBox="36 29.5 128 141" height="200" width="200" xmlns="http://www.w3.org/2000/svg" data-type="color" role="presentation" aria-hidden="true" aria-label="">
    <g>
        <path d="M146.667 89.35h-9.334v-22.6c0-20.54-16.747-37.25-37.333-37.25S62.667 46.21 62.667 66.75v22.6h-9.334C43.775 89.35 36 97.111 36 106.65v46.55c0 9.539 7.775 17.3 17.333 17.3h93.334c9.558 0 17.333-7.761 17.333-17.3v-46.55c0-9.539-7.775-17.3-17.333-17.3zm-76-22.6c0-16.128 13.159-29.25 29.333-29.25s29.333 13.122 29.333 29.25v22.6H70.667v-22.6zM156 153.2c0 5.128-4.187 9.3-9.333 9.3H53.333c-5.146 0-9.333-4.172-9.333-9.3v-46.55c0-5.128 4.187-9.3 9.333-9.3h93.334c5.146 0 9.333 4.172 9.333 9.3v46.55z" fill="#000001" data-color="1"/>
    </g>
</svg>