<svg preserveAspectRatio="xMidYMid meet" data-bbox="43 30 114 139.999" viewBox="43 30 114 139.999" height="200" width="200" xmlns="http://www.w3.org/2000/svg" data-type="color" role="presentation" aria-hidden="true" aria-label="">
    <g>
        <path d="M154.409 50.063l-53-19.809a4.031 4.031 0 0 0-2.818 0l-53 19.809A3.972 3.972 0 0 0 43 53.78V100c0 17.375 9.634 34.96 27.86 50.855 13.481 11.757 26.786 18.444 27.346 18.724a4.038 4.038 0 0 0 3.588-.001c.56-.279 13.864-6.967 27.346-18.724C147.366 134.96 157 117.375 157 100V53.78a3.972 3.972 0 0 0-2.591-3.717zM149 100c0 32.697-39.966 56.55-49 61.522-9.034-4.972-49-28.825-49-61.522V56.529l49-18.314 49 18.314V100z" fill="#000001" data-color="1"/>
    </g>
</svg>