<svg preserveAspectRatio="xMidYMid meet" data-bbox="44 19.999 111.999 160.001" viewBox="44 19.999 111.999 160.001" height="200" width="200" xmlns="http://www.w3.org/2000/svg" data-type="color" role="presentation" aria-hidden="true" aria-label=""><defs><style>#comp-mpiv2qfl svg [data-color="1"] {fill: #6F5645;}</style></defs>
    <g>
        <path d="M154.802 105.426s13.68 72.582-51.424 74.574c-64.805-8.363-64.505-64.916-54.42-85.327 1.698 8.961 2.896 12.545 2.896 12.545s2.297 5.576 7.09 8.662c-1.098-2.589-7.689-19.315.999-37.138 7.489-15.333 21.169-21.207 24.364-22.402-1.098 2.788-2.297 6.472-2.996 10.753-.899 5.476-.599 10.255-.2 13.64C85.305 75.755 91.196 67.69 95.09 56.34c5.392-15.632 4.394-29.272 3.295-36.341 4.094 2.489 16.076 10.653 21.968 26.584 8.188 22.302-2.396 41.717-4.094 44.605a769.422 769.422 0 0 0 12.681-20.112c.999-1.693 2.097-3.385 3.095-5.078 3.095 3.684 6.391 8.363 8.987 14.238 8.388 18.619 4.893 36.441 2.996 43.709 3.595-6.073 7.19-12.346 10.784-18.519z" fill="#191919" data-color="1"/>
    </g>
</svg>